<svg width="36" height="36" viewBox="0 0 36 36" fill="none" xmlns="http://www.w3.org/2000/svg">
<g id="Group">
<path id="Vector" d="M33 13.47V27C33 28.65 31.65 30 30 30H6C4.35 30 3 28.65 3 27V9C3 7.35 4.35 6 6 6H21.15C21.06 6.48 21 6.99 21 7.5C21 9.72 21.975 11.685 23.505 13.065L18 16.5L6 9V12L18 19.5L25.95 14.52C26.76 14.82 27.6 15 28.5 15C30.195 15 31.74 14.415 33 13.47ZM24 7.5C24 9.99 26.01 12 28.5 12C30.99 12 33 9.99 33 7.5C33 5.01 30.99 3 28.5 3C26.01 3 24 5.01 24 7.5Z" fill="#323232"/>
</g>
</svg>
